<svg xmlns="http://www.w3.org/2000/svg" width="24" height="15" viewBox="0 0 100 65.104">
  <g id="noun_Water_Depth_12146" data-name="noun_Water Depth_12146" transform="translate(0 -17.448)">
    <g id="Group_30" data-name="Group 30">
      <g id="Group_29" data-name="Group 29">
        <path id="Path_4" data-name="Path 4" d="M75,36.233c-7.6,0-11.961-4.455-15.82-8.387C56.183,24.79,53.593,22.152,50,22.152c-3.541,0-6.109,2.62-9.081,5.652-3.868,3.95-8.25,8.429-15.921,8.429-7.593,0-11.961-4.455-15.82-8.387C6.183,24.791,3.592,22.152,0,22.152v-4.7c5.567,0,9.109,3.611,12.536,7.1C16.054,28.14,19.38,31.53,25,31.53c5.691,0,9.031-3.408,12.563-7.015,3.4-3.475,6.919-7.067,12.44-7.067,5.566,0,9.11,3.611,12.535,7.1C66.055,28.14,69.38,31.53,75,31.53c5.691,0,9.03-3.408,12.563-7.015,3.4-3.476,6.917-7.067,12.439-7.067v4.7c-3.541,0-6.11,2.62-9.077,5.652C87.051,31.755,82.668,36.233,75,36.233Z" fill="#fff"/>
      </g>
      <path id="Path_5" data-name="Path 5" d="M66.945,58.959,52.352,73.549V36.233h-4.7V73.552L33.124,59.031,29.8,62.355,50,82.552,70.271,62.286Z" fill="#fff"/>
    </g>
  </g>
</svg>
