<svg xmlns="http://www.w3.org/2000/svg" width="24" height="24" viewBox="0 0 96 96">
  <g id="noun_distance_947380" transform="translate(-2 -2)">
    <g id="Group_31" data-name="Group 31" transform="translate(0 -952.362)">
      <path id="Path_6" data-name="Path 6" d="M16.031,954.362A13.8,13.8,0,0,0,2,968.362a22.98,22.98,0,0,0,1.125,6.5L16,1002.362l12.875-27.5a23.106,23.106,0,0,0,1.125-6.5,13.748,13.748,0,0,0-13.969-14Zm-.031,8a6,6,0,1,1-6,6A6,6,0,0,1,16,962.362Zm65.969,34a15.8,15.8,0,0,0-15.969,16,23.942,23.942,0,0,0,1.281,7.063L82,1050.362l14.719-30.937A23.818,23.818,0,0,0,98,1012.362a15.857,15.857,0,0,0-16.031-16Zm-62.281,2.844-1.75,3.719,32.125,6.75-19.5,20.406a2,2,0,0,0,.781,3.281L79.5,1049.737l-2.406-5.062-41.469-14.094,19.813-20.719a2,2,0,0,0-1.031-3.344l-34.719-7.312ZM82,1005.362a7,7,0,1,1-7,7A7,7,0,0,1,82,1005.362Z" fill="#fff"/>
    </g>
  </g>
</svg>
