<svg xmlns="http://www.w3.org/2000/svg" width="210" height="88" viewBox="0 0 210 88">
  <g id="Group_17" data-name="Group 17" transform="translate(-91 -696)">
    <line id="Line_1" data-name="Line 1" x2="22" transform="translate(115.5 709.5)" fill="none" stroke="#fff" stroke-width="1"/>
    <g id="Ellipse_6" data-name="Ellipse 6" transform="translate(91 696)" fill="#fff" stroke="#fff" stroke-width="1">
      <circle cx="13" cy="13" r="13" stroke="none"/>
      <circle cx="13" cy="13" r="12.5" fill="none"/>
    </g>
    <g id="Ellipse_6-2" data-name="Ellipse 6" transform="translate(137 696)" fill="none" stroke="#fff" stroke-width="1">
      <circle cx="13" cy="13" r="13" stroke="none"/>
      <circle cx="13" cy="13" r="12.5" fill="none"/>
    </g>
    <g id="Ellipse_6-3" data-name="Ellipse 6" transform="translate(183 696)" fill="none" stroke="#fff" stroke-width="1">
      <circle cx="13" cy="13" r="13" stroke="none"/>
      <circle cx="13" cy="13" r="12.5" fill="none"/>
    </g>
    <g id="Ellipse_6-4" data-name="Ellipse 6" transform="translate(229 696)" fill="none" stroke="#fff" stroke-width="1">
      <circle cx="13" cy="13" r="13" stroke="none"/>
      <circle cx="13" cy="13" r="12.5" fill="none"/>
    </g>
    <g id="Ellipse_6-5" data-name="Ellipse 6" transform="translate(275 696)" fill="none" stroke="#fff" stroke-width="1">
      <circle cx="13" cy="13" r="13" stroke="none"/>
      <circle cx="13" cy="13" r="12.5" fill="none"/>
    </g>
    <line id="Line_2" data-name="Line 2" x2="21" transform="translate(162.5 709.5)" fill="none" stroke="#fff" stroke-width="1"/>
    <line id="Line_3" data-name="Line 3" x2="21" transform="translate(208.5 709.5)" fill="none" stroke="#fff" stroke-width="1"/>
    <text id="Område" transform="translate(112 736)" fill="#fff" font-size="40" font-family="HelveticaNeue-Thin, Helvetica Neue" font-weight="200"><tspan x="16.7" y="39">Område</tspan></text>
    <line id="Line_13" data-name="Line 13" x2="21" transform="translate(254.5 709.5)" fill="none" stroke="#fff" stroke-width="1"/>
  </g>
</svg>
