<svg xmlns="http://www.w3.org/2000/svg" width="280" height="101" viewBox="0 0 280 101">
  <g id="Group_20" data-name="Group 20" transform="translate(-944 -696)">
    <text id="Best_plassering" data-name="Best plassering" transform="translate(944 739)" fill="#fff" font-size="40" font-family="HelveticaNeue-Thin, Helvetica Neue" font-weight="200"><tspan x="12.52" y="39">Best plassering</tspan></text>
    <line id="Line_22" data-name="Line 22" x2="22" transform="translate(1003.5 709.5)" fill="none" stroke="#fff" stroke-width="1"/>
    <g id="Ellipse_30" data-name="Ellipse 30" transform="translate(979 696)" fill="#fff" stroke="#fff" stroke-width="1">
      <circle cx="13" cy="13" r="13" stroke="none"/>
      <circle cx="13" cy="13" r="12.5" fill="none"/>
    </g>
    <g id="Ellipse_31" data-name="Ellipse 31" transform="translate(1025 696)" fill="#fff" stroke="#fff" stroke-width="1">
      <circle cx="13" cy="13" r="13" stroke="none"/>
      <circle cx="13" cy="13" r="12.5" fill="none"/>
    </g>
    <g id="Ellipse_32" data-name="Ellipse 32" transform="translate(1071 696)" fill="#fff" stroke="#fff" stroke-width="1">
      <circle cx="13" cy="13" r="13" stroke="none"/>
      <circle cx="13" cy="13" r="12.5" fill="none"/>
    </g>
    <g id="Ellipse_33" data-name="Ellipse 33" transform="translate(1117 696)" fill="#fff" stroke="#fff" stroke-width="1">
      <circle cx="13" cy="13" r="13" stroke="none"/>
      <circle cx="13" cy="13" r="12.5" fill="none"/>
    </g>
    <g id="Ellipse_34" data-name="Ellipse 34" transform="translate(1163 696)" fill="none" stroke="#fff" stroke-width="1">
      <circle cx="13" cy="13" r="13" stroke="none"/>
      <circle cx="13" cy="13" r="12.5" fill="none"/>
    </g>
    <line id="Line_23" data-name="Line 23" x2="21" transform="translate(1050.5 709.5)" fill="none" stroke="#fff" stroke-width="1"/>
    <line id="Line_24" data-name="Line 24" x2="21" transform="translate(1096.5 709.5)" fill="none" stroke="#fff" stroke-width="1"/>
    <line id="Line_25" data-name="Line 25" x2="21" transform="translate(1142.5 709.5)" fill="none" stroke="#fff" stroke-width="1"/>
  </g>
</svg>
