<svg xmlns="http://www.w3.org/2000/svg" width="280" height="101" viewBox="0 0 280 101">
  <g id="Group_21" data-name="Group 21" transform="translate(-1255 -696)">
    <line id="Line_26" data-name="Line 26" x2="22" transform="translate(1314.5 709.5)" fill="none" stroke="#fff" stroke-width="1"/>
    <g id="Ellipse_35" data-name="Ellipse 35" transform="translate(1290 696)" fill="#fff" stroke="#fff" stroke-width="1">
      <circle cx="13" cy="13" r="13" stroke="none"/>
      <circle cx="13" cy="13" r="12.5" fill="none"/>
    </g>
    <g id="Ellipse_36" data-name="Ellipse 36" transform="translate(1336 696)" fill="#fff" stroke="#fff" stroke-width="1">
      <circle cx="13" cy="13" r="13" stroke="none"/>
      <circle cx="13" cy="13" r="12.5" fill="none"/>
    </g>
    <g id="Ellipse_37" data-name="Ellipse 37" transform="translate(1382 696)" fill="#fff" stroke="#fff" stroke-width="1">
      <circle cx="13" cy="13" r="13" stroke="none"/>
      <circle cx="13" cy="13" r="12.5" fill="none"/>
    </g>
    <g id="Ellipse_38" data-name="Ellipse 38" transform="translate(1428 696)" fill="#fff" stroke="#fff" stroke-width="1">
      <circle cx="13" cy="13" r="13" stroke="none"/>
      <circle cx="13" cy="13" r="12.5" fill="none"/>
    </g>
    <g id="Ellipse_39" data-name="Ellipse 39" transform="translate(1474 696)" fill="#fff" stroke="#fff" stroke-width="1">
      <circle cx="13" cy="13" r="13" stroke="none"/>
      <circle cx="13" cy="13" r="12.5" fill="none"/>
    </g>
    <line id="Line_27" data-name="Line 27" x2="21" transform="translate(1361.5 709.5)" fill="none" stroke="#fff" stroke-width="1"/>
    <line id="Line_28" data-name="Line 28" x2="21" transform="translate(1407.5 709.5)" fill="none" stroke="#fff" stroke-width="1"/>
    <line id="Line_29" data-name="Line 29" x2="21" transform="translate(1453.5 709.5)" fill="none" stroke="#fff" stroke-width="1"/>
    <text id="Resultat" transform="translate(1255 739)" fill="#fff" font-size="40" font-family="HelveticaNeue-Thin, Helvetica Neue" font-weight="200"><tspan x="73.3" y="39">Resultat</tspan></text>
  </g>
</svg>
