<svg xmlns="http://www.w3.org/2000/svg" width="301.557" height="52" viewBox="0 0 301.557 52">
  <g id="Group_13" data-name="Group 13" transform="translate(-634.443 -527)">
    <g id="iconfinder_info_370079_1_" data-name="iconfinder_info_370079 (1)" transform="translate(624.335 524.793)">
      <path id="Path_1" data-name="Path 1" d="M230.045,111.676a2.226,2.226,0,1,0-2.227-2.227A2.227,2.227,0,0,0,230.045,111.676Z" transform="translate(-201.287 -90.214)" fill="#fff"/>
      <path id="Path_2" data-name="Path 2" d="M222.8,187.41v-1.485h-4.454v1.485h1.485v12.618h-1.485v1.485h5.938v-1.485H222.8Z" transform="translate(-192.527 -162.978)" fill="#fff"/>
      <path id="Path_3" data-name="Path 3" d="M28.665,9.65A18.557,18.557,0,1,0,47.221,28.207,18.557,18.557,0,0,0,28.665,9.65Zm0,35.629A17.072,17.072,0,1,1,45.737,28.207,17.092,17.092,0,0,1,28.665,45.279Z" transform="translate(0)" fill="#fff"/>
    </g>
    <text id="Bruk_søkefelt_for_å_avgrense_område" data-name="Bruk søkefelt for å avgrense område" transform="translate(685 527)" fill="#fff" font-size="20" font-family="HelveticaNeue-Thin, Helvetica Neue" font-weight="200"><tspan x="0" y="19">Bruk søkefelt for å avgrense </tspan><tspan x="0" y="43">område</tspan></text>
  </g>
</svg>
