<svg xmlns="http://www.w3.org/2000/svg" width="24" height="20" viewBox="0 0 86 47.2">
  <g id="noun_Sea_1433663" transform="translate(-7 -26.4)">
    <g id="Group">ß
      <path id="Path" d="M83.9,30.4c-2.2-1.7-4.8-3.9-9.9-3.9s-7.7,2.2-9.9,3.9S60.9,33,58,33s-4.3-1.1-6.1-2.6A14.549,14.549,0,0,0,42,26.5c-5.1,0-7.7,2.2-9.9,3.9S28.9,33,26,33s-4.3-1.1-6.1-2.6a14.77,14.77,0,0,0-9.9-4H7v6h3c2.9,0,4.3,1.1,6.1,2.6A14.549,14.549,0,0,0,26,38.9c5.1,0,7.7-2.2,9.9-3.9s3.2-2.6,6.1-2.6,4.3,1.1,6.1,2.6A14.549,14.549,0,0,0,58,38.9c5.1,0,7.7-2.2,9.9-3.9s3.2-2.6,6.1-2.6,4.3,1.1,6.1,2.6A14.773,14.773,0,0,0,90,38.9h3v-6H90C87.1,32.9,85.7,31.9,83.9,30.4Z" fill="#fff"/>
      <path id="Path-2" data-name="Path" d="M83.9,47.7c-2.2-1.7-4.8-3.9-9.9-3.9s-7.7,2.2-9.9,3.9-3.2,2.6-6.1,2.6-4.3-1.1-6.1-2.6A14.549,14.549,0,0,0,42,43.8c-5.1,0-7.7,2.2-9.9,3.9s-3.2,2.6-6.1,2.6-4.3-1.1-6.1-2.6A14.773,14.773,0,0,0,10,43.8H7v6h3c2.9,0,4.3,1.1,6.1,2.6A14.549,14.549,0,0,0,26,56.3c5.1,0,7.7-2.2,9.9-3.9s3.2-2.6,6.1-2.6,4.3,1.1,6.1,2.6A14.549,14.549,0,0,0,58,56.3c5.1,0,7.7-2.2,9.9-3.9s3.2-2.6,6.1-2.6,4.3,1.1,6.1,2.6A14.78,14.78,0,0,0,90,56.2h3v-6H90C87.1,50.2,85.7,49.2,83.9,47.7Z" fill="#fff"/>
      <path id="Path-3" data-name="Path" d="M83.9,65c-2.2-1.7-4.8-3.9-9.9-3.9s-7.7,2.2-9.9,3.9-3.2,2.6-6.1,2.6-4.3-1.1-6.1-2.6A14.549,14.549,0,0,0,42,61.1c-5.1,0-7.7,2.2-9.9,3.9s-3.2,2.6-6.1,2.6-4.3-1.1-6.1-2.6A14.773,14.773,0,0,0,10,61.1H7v6h3c2.9,0,4.3,1.1,6.1,2.6A14.549,14.549,0,0,0,26,73.6c5.1,0,7.7-2.2,9.9-3.9s3.2-2.6,6.1-2.6,4.3,1.1,6.1,2.6A14.549,14.549,0,0,0,58,73.6c5.1,0,7.7-2.2,9.9-3.9s3.2-2.6,6.1-2.6,4.3,1.1,6.1,2.6A14.773,14.773,0,0,0,90,73.6h3v-6H90C87.1,67.6,85.7,66.5,83.9,65Z" fill="#fff"/>
    </g>
  </g>
</svg>
