<svg xmlns="http://www.w3.org/2000/svg" width="24" height="20" viewBox="0 0 92 94.943">
  <g id="noun_Fish_2693427" transform="translate(0 -34)">
    <g id="Group_60" data-name="Group 60" transform="translate(4.525 34)">
      <g id="Group_59" data-name="Group 59" transform="translate(0 0)">
        <g id="Group_58" data-name="Group 58">
          <g id="Group_32" data-name="Group 32" transform="translate(34.293 13.686)">
            <path id="Path_7" data-name="Path 7" d="M207.223,125.241a1.32,1.32,0,0,1-1.319-1.32V107.915a1.32,1.32,0,0,1,2.253-.933l7.925,7.925a1.32,1.32,0,0,1,.009,1.857l-7.925,8.082A1.318,1.318,0,0,1,207.223,125.241Zm1.32-14.14v9.59l4.748-4.842Z" transform="translate(-205.904 -106.595)" fill="#fff"/>
          </g>
          <g id="Group_33" data-name="Group 33" transform="translate(42.218 12.066)">
            <path id="Path_8" data-name="Path 8" d="M267.74,119.732c-7.255,0-14.18-3.562-19.5-10.029a1.32,1.32,0,0,1,0-1.677C253.561,101.561,260.486,98,267.74,98a22.914,22.914,0,0,1,11.868,3.36,1.319,1.319,0,0,1,.317,2,8.355,8.355,0,0,0,0,11.006,1.32,1.32,0,0,1-.317,2A22.914,22.914,0,0,1,267.74,119.732Zm-16.745-10.867c4.7,5.315,10.61,8.228,16.745,8.228a20.041,20.041,0,0,0,9.23-2.275,10.994,10.994,0,0,1,0-11.905,20.042,20.042,0,0,0-9.229-2.274C261.6,100.639,255.7,103.551,250.994,108.865Z" transform="translate(-247.94 -98)" fill="#fff"/>
          </g>
          <g id="Group_34" data-name="Group 34" transform="translate(69.496 15.24)">
            <path id="Path_9" data-name="Path 9" d="M396.347,130.219a1.319,1.319,0,0,1-.994-.451,10.994,10.994,0,0,1,0-14.482,1.32,1.32,0,0,1,1.669-.265,29.526,29.526,0,0,1,7.633,6.666,1.32,1.32,0,0,1,0,1.677,29.542,29.542,0,0,1-7.631,6.668A1.319,1.319,0,0,1,396.347,130.219Zm.313-12.306a8.354,8.354,0,0,0,0,9.228,26.955,26.955,0,0,0,5.24-4.615A26.945,26.945,0,0,0,396.66,117.914Z" transform="translate(-392.631 -114.836)" fill="#fff"/>
          </g>
          <g id="Group_35" data-name="Group 35" transform="translate(11.311 66.723)">
            <path id="Path_10" data-name="Path 10" d="M85.319,400.248A1.32,1.32,0,0,1,84,398.928v-9.684a1.32,1.32,0,0,1,2.253-.933l4.795,4.795a1.32,1.32,0,0,1,.009,1.857l-4.795,4.89A1.32,1.32,0,0,1,85.319,400.248Zm1.32-7.818V395.7l1.618-1.65Z" transform="translate(-84 -387.924)" fill="#fff"/>
          </g>
          <g id="Group_36" data-name="Group 36" transform="translate(16.106 65.743)">
            <path id="Path_11" data-name="Path 11" d="M121.934,396.915c-4.548,0-8.881-2.223-12.2-6.258a1.32,1.32,0,0,1,0-1.677c3.32-4.034,7.652-6.256,12.2-6.256a14.381,14.381,0,0,1,7.448,2.107,1.32,1.32,0,0,1,.317,2,4.534,4.534,0,0,0,0,5.973,1.32,1.32,0,0,1-.317,2A14.377,14.377,0,0,1,121.934,396.915Zm-9.428-7.1a12.94,12.94,0,0,0,9.428,4.457,11.529,11.529,0,0,0,4.85-1.077,7.173,7.173,0,0,1,0-6.759,11.528,11.528,0,0,0-4.849-1.077A12.943,12.943,0,0,0,112.506,389.819Z" transform="translate(-109.433 -382.724)" fill="#fff"/>
          </g>
          <g id="Group_37" data-name="Group 37" transform="translate(32.61 67.663)">
            <path id="Path_12" data-name="Path 12" d="M199.747,403.259a1.318,1.318,0,0,1-.994-.451,7.173,7.173,0,0,1,0-9.449,1.319,1.319,0,0,1,1.669-.264,18.39,18.39,0,0,1,4.753,4.15,1.32,1.32,0,0,1,0,1.677,18.39,18.39,0,0,1-4.753,4.151A1.318,1.318,0,0,1,199.747,403.259Zm.356-7.217a4.532,4.532,0,0,0,0,4.084,15.84,15.84,0,0,0,2.3-2.042A15.857,15.857,0,0,0,200.1,396.042Z" transform="translate(-196.977 -392.909)" fill="#fff"/>
          </g>
          <g id="Group_38" data-name="Group 38" transform="translate(1.12 0.981)">
            <path id="Path_13" data-name="Path 13" d="M31.262,51.525a1.32,1.32,0,0,1-1.319-1.32V40.521a1.32,1.32,0,0,1,2.253-.933l4.795,4.795A1.32,1.32,0,0,1,37,46.24L32.2,51.13A1.319,1.319,0,0,1,31.262,51.525Zm1.32-7.818v3.268l1.618-1.65Z" transform="translate(-29.943 -39.201)" fill="#fff"/>
          </g>
          <g id="Group_39" data-name="Group 39" transform="translate(5.915)">
            <path id="Path_14" data-name="Path 14" d="M67.877,48.191c-4.548,0-8.881-2.223-12.2-6.258a1.32,1.32,0,0,1,0-1.677C59,36.222,63.329,34,67.877,34a14.377,14.377,0,0,1,7.448,2.107,1.32,1.32,0,0,1,.317,2,4.533,4.533,0,0,0,0,5.973,1.32,1.32,0,0,1-.317,2A14.376,14.376,0,0,1,67.877,48.191Zm-9.428-7.1a12.939,12.939,0,0,0,9.428,4.457,11.524,11.524,0,0,0,4.85-1.077,7.172,7.172,0,0,1,0-6.758,11.528,11.528,0,0,0-4.849-1.077A12.943,12.943,0,0,0,58.449,41.095Z" transform="translate(-55.376 -34)" fill="#fff"/>
          </g>
          <g id="Group_40" data-name="Group 40" transform="translate(22.419 1.92)">
            <path id="Path_15" data-name="Path 15" d="M145.69,54.534a1.319,1.319,0,0,1-.994-.451,7.173,7.173,0,0,1,0-9.449,1.319,1.319,0,0,1,1.669-.264,18.392,18.392,0,0,1,4.754,4.15,1.32,1.32,0,0,1,0,1.677,18.391,18.391,0,0,1-4.753,4.151A1.316,1.316,0,0,1,145.69,54.534Zm.356-7.217a4.532,4.532,0,0,0,0,4.084,15.829,15.829,0,0,0,2.3-2.042A15.859,15.859,0,0,0,146.045,47.317Z" transform="translate(-142.92 -44.184)" fill="#fff"/>
          </g>
          <g id="Group_41" data-name="Group 41" transform="translate(55.143 5.656)">
            <path id="Path_16" data-name="Path 16" d="M327.433,73.049a1.313,1.313,0,0,1-.731-.222l-7.563-5.042v3.944a1.32,1.32,0,1,1-2.639,0v-6.41a1.32,1.32,0,0,1,2.052-1.1l9.615,6.41a1.32,1.32,0,0,1-.733,2.418Z" transform="translate(-316.5 -63.999)" fill="#fff"/>
          </g>
          <g id="Group_42" data-name="Group 42" transform="translate(55.143 31.295)">
            <path id="Path_17" data-name="Path 17" d="M317.82,209.048a1.32,1.32,0,0,1-1.32-1.32v-6.41a1.32,1.32,0,0,1,2.639,0v3.944l7.563-5.042a1.32,1.32,0,1,1,1.464,2.2l-9.615,6.41A1.318,1.318,0,0,1,317.82,209.048Z" transform="translate(-316.5 -199.998)" fill="#fff"/>
          </g>
          <g id="Group_43" data-name="Group 43" transform="translate(49.016 73.525)">
            <path id="Path_18" data-name="Path 18" d="M300.4,434.18H285.32a1.32,1.32,0,0,1-1.32-1.32,8.861,8.861,0,0,1,17.721,0A1.32,1.32,0,0,1,300.4,434.18Zm-13.621-2.639h12.161a6.222,6.222,0,0,0-12.161,0Z" transform="translate(-284 -424)" fill="#fff"/>
          </g>
          <g id="Group_44" data-name="Group 44" transform="translate(35.82 41.475)">
            <path id="Path_19" data-name="Path 19" d="M226.631,262.3H215.32a1.32,1.32,0,0,1-1.32-1.32,6.975,6.975,0,0,1,13.951,0A1.32,1.32,0,0,1,226.631,262.3Zm-9.786-2.639h8.262a4.337,4.337,0,0,0-8.262,0Z" transform="translate(-214 -254)" fill="#fff"/>
          </g>
          <g id="Group_45" data-name="Group 45" transform="translate(78.102 39.407)">
            <path id="Path_20" data-name="Path 20" d="M442.275,274.132a1.32,1.32,0,0,1-.591-2.5,1.11,1.11,0,0,0,0-1.986l-.83-.415a3.749,3.749,0,0,1-.573-6.353l2.4-1.8a1.11,1.11,0,0,0-.169-1.881l-.83-.415a3.749,3.749,0,0,1,0-6.707,1.11,1.11,0,0,0,0-1.986l-1.331-.665a3.749,3.749,0,0,1-.974-6,1.32,1.32,0,1,1,1.866,1.866,1.11,1.11,0,0,0,.289,1.778l1.331.665a3.749,3.749,0,0,1,0,6.707,1.11,1.11,0,0,0,0,1.986l.83.415a3.749,3.749,0,0,1,.573,6.353l-2.4,1.8a1.11,1.11,0,0,0,.169,1.881l.83.415a3.749,3.749,0,0,1,0,6.707A1.306,1.306,0,0,1,442.275,274.132Z" transform="translate(-438.279 -243.031)" fill="#fff"/>
          </g>
          <g id="Group_46" data-name="Group 46" transform="translate(70.561 39.407)">
            <path id="Path_21" data-name="Path 21" d="M402.275,274.132a1.32,1.32,0,0,1-.591-2.5,1.11,1.11,0,0,0,0-1.986l-.83-.415a3.749,3.749,0,0,1-.573-6.353l2.4-1.8a1.11,1.11,0,0,0-.169-1.881l-.83-.415a3.749,3.749,0,0,1,0-6.707,1.11,1.11,0,0,0,0-1.986l-1.331-.665a3.749,3.749,0,0,1-.974-6,1.32,1.32,0,1,1,1.866,1.866,1.11,1.11,0,0,0,.289,1.778l1.331.665a3.749,3.749,0,0,1,0,6.707,1.11,1.11,0,0,0,0,1.986l.83.415a3.749,3.749,0,0,1,.573,6.353l-2.4,1.8a1.11,1.11,0,0,0,.169,1.881l.83.415a3.749,3.749,0,0,1,0,6.707A1.306,1.306,0,0,1,402.275,274.132Z" transform="translate(-398.279 -243.031)" fill="#fff"/>
          </g>
          <g id="Group_47" data-name="Group 47" transform="translate(63.02 39.407)">
            <path id="Path_22" data-name="Path 22" d="M362.275,274.132a1.32,1.32,0,0,1-.591-2.5,1.11,1.11,0,0,0,0-1.986l-.83-.415a3.749,3.749,0,0,1-.573-6.353l2.4-1.8a1.11,1.11,0,0,0-.169-1.881l-.83-.415a3.749,3.749,0,0,1,0-6.707,1.11,1.11,0,0,0,0-1.986l-1.331-.665a3.749,3.749,0,0,1-.974-6,1.32,1.32,0,1,1,1.866,1.866,1.11,1.11,0,0,0,.289,1.778l1.331.665a3.749,3.749,0,0,1,0,6.707,1.11,1.11,0,0,0,0,1.986l.83.415a3.749,3.749,0,0,1,.573,6.353l-2.4,1.8a1.11,1.11,0,0,0,.169,1.881l.83.415a3.749,3.749,0,0,1,0,6.707A1.306,1.306,0,0,1,362.275,274.132Z" transform="translate(-358.279 -243.031)" fill="#fff"/>
          </g>
          <g id="Group_48" data-name="Group 48" transform="translate(56.557 67.869)">
            <path id="Path_23" data-name="Path 23" d="M353.6,396.639H325.32a1.32,1.32,0,1,1,0-2.639H353.6a1.32,1.32,0,0,1,0,2.639Z" transform="translate(-324 -394)" fill="#fff"/>
          </g>
          <g id="Group_49" data-name="Group 49" transform="translate(21.544 20.555)">
            <path id="Path_24" data-name="Path 24" d="M142.275,174.131a1.32,1.32,0,0,1-.591-2.5,1.11,1.11,0,0,0,0-1.986l-.83-.415a3.749,3.749,0,0,1-.573-6.353l2.4-1.8a1.11,1.11,0,0,0-.17-1.881l-.83-.415a3.749,3.749,0,0,1,0-6.707,1.11,1.11,0,0,0,0-1.986l-1.331-.665a3.749,3.749,0,0,1-.974-6,1.32,1.32,0,0,1,1.866,1.866,1.11,1.11,0,0,0,.289,1.778l1.331.665a3.749,3.749,0,0,1,0,6.707,1.11,1.11,0,0,0,0,1.986l.83.415a3.749,3.749,0,0,1,.573,6.353l-2.4,1.8a1.11,1.11,0,0,0,.169,1.881l.83.415a3.749,3.749,0,0,1,0,6.707A1.3,1.3,0,0,1,142.275,174.131Z" transform="translate(-138.278 -143.029)" fill="#fff"/>
          </g>
          <g id="Group_50" data-name="Group 50" transform="translate(14.003 20.555)">
            <path id="Path_25" data-name="Path 25" d="M102.275,174.131a1.32,1.32,0,0,1-.591-2.5,1.11,1.11,0,0,0,0-1.986l-.83-.415a3.749,3.749,0,0,1-.573-6.353l2.4-1.8a1.11,1.11,0,0,0-.17-1.881l-.83-.415a3.749,3.749,0,0,1,0-6.707,1.11,1.11,0,0,0,0-1.986l-1.331-.665a3.749,3.749,0,0,1-.974-6,1.32,1.32,0,0,1,1.866,1.866,1.11,1.11,0,0,0,.289,1.778l1.331.665a3.749,3.749,0,0,1,0,6.707,1.11,1.11,0,0,0,0,1.986l.83.415a3.749,3.749,0,0,1,.573,6.353l-2.4,1.8a1.11,1.11,0,0,0,.169,1.881l.83.415a3.749,3.749,0,0,1,0,6.707A1.3,1.3,0,0,1,102.275,174.131Z" transform="translate(-98.278 -143.029)" fill="#fff"/>
          </g>
          <g id="Group_51" data-name="Group 51" transform="translate(6.462 20.555)">
            <path id="Path_26" data-name="Path 26" d="M62.275,174.131a1.32,1.32,0,0,1-.591-2.5,1.11,1.11,0,0,0,0-1.986l-.83-.415a3.749,3.749,0,0,1-.573-6.353l2.4-1.8a1.11,1.11,0,0,0-.17-1.881l-.83-.415a3.749,3.749,0,0,1,0-6.707,1.11,1.11,0,0,0,0-1.986l-1.331-.665a3.749,3.749,0,0,1-.974-6,1.32,1.32,0,1,1,1.866,1.866,1.11,1.11,0,0,0,.289,1.778l1.331.665a3.749,3.749,0,0,1,0,6.707,1.11,1.11,0,0,0,0,1.986l.83.415a3.749,3.749,0,0,1,.573,6.353l-2.4,1.8a1.11,1.11,0,0,0,.169,1.881l.83.415a3.749,3.749,0,0,1,0,6.707A1.309,1.309,0,0,1,62.275,174.131Z" transform="translate(-58.278 -143.029)" fill="#fff"/>
          </g>
          <g id="Group_52" data-name="Group 52" transform="translate(0 49.016)">
            <path id="Path_27" data-name="Path 27" d="M53.6,296.639H25.32a1.32,1.32,0,0,1,0-2.639H53.6a1.32,1.32,0,0,1,0,2.639Z" transform="translate(-24 -294)" fill="#fff"/>
          </g>
          <g id="Group_53" data-name="Group 53" transform="translate(41.475 54.672)">
            <path id="Path_28" data-name="Path 28" d="M247.2,330.41a3.2,3.2,0,1,1,3.2-3.2A3.209,3.209,0,0,1,247.2,330.41Zm0-3.771a.566.566,0,1,0,.566.566A.566.566,0,0,0,247.2,326.639Z" transform="translate(-244 -324)" fill="#fff"/>
          </g>
          <g id="Group_54" data-name="Group 54" transform="translate(77.295 3.77)">
            <path id="Path_29" data-name="Path 29" d="M436.262,58.525a2.262,2.262,0,1,1,2.262-2.262A2.265,2.265,0,0,1,436.262,58.525Zm0-2.639a.377.377,0,1,0,.377.377A.377.377,0,0,0,436.262,55.885Z" transform="translate(-434 -54)" fill="#fff"/>
          </g>
          <g id="Group_55" data-name="Group 55" transform="translate(82.951 11.311)">
            <path id="Path_30" data-name="Path 30" d="M466.262,98.525a2.262,2.262,0,1,1,2.262-2.262A2.265,2.265,0,0,1,466.262,98.525Zm0-2.639a.377.377,0,1,0,.377.377A.377.377,0,0,0,466.262,95.885Z" transform="translate(-464 -94)" fill="#fff"/>
          </g>
          <g id="Group_56" data-name="Group 56" transform="translate(79.18 30.164)">
            <path id="Path_31" data-name="Path 31" d="M446.262,198.525a2.262,2.262,0,1,1,2.262-2.262A2.265,2.265,0,0,1,446.262,198.525Zm0-2.639a.377.377,0,1,0,.377.377A.377.377,0,0,0,446.262,195.885Z" transform="translate(-444 -194)" fill="#fff"/>
          </g>
          <g id="Group_57" data-name="Group 57" transform="translate(45.246 3.77)">
            <path id="Path_32" data-name="Path 32" d="M266.262,58.525a2.262,2.262,0,1,1,2.262-2.262A2.265,2.265,0,0,1,266.262,58.525Zm0-2.639a.377.377,0,1,0,.377.377A.377.377,0,0,0,266.262,55.885Z" transform="translate(-264 -54)" fill="#fff"/>
          </g>
        </g>
      </g>
    </g>
    <text id="Created_by_Flatart" data-name="Created by Flatart" transform="translate(0 127)" fill="#fff" font-size="1" font-family="HelveticaNeue-Bold, Helvetica Neue" font-weight="700"><tspan x="0" y="0">Created by Flatart</tspan></text>
    <text id="from_the_Noun_Project" data-name="from the Noun Project" transform="translate(0 127.943)" fill="#fff" font-size="1" font-family="HelveticaNeue-Bold, Helvetica Neue" font-weight="700"><tspan x="0" y="0">from the Noun Project</tspan></text>
  </g>
</svg>
