<svg width="512" height="512" xmlns="http://www.w3.org/2000/svg">

 <g>
  <title>background</title>
  <rect fill="none" id="canvas_background" height="402" width="582" y="-1" x="-1"/>
 </g>
 <g>
  <title>Layer 1</title>
  <path fill="#ffffff" id="svg_2" d="m96.34,284.23l180.57,0c7.31,0 12.63,6.92 10.75,13.98l-45.27,170.19c-0.01,0.02 0.02,0.03 0.03,0.02l176.73,-248.38c5.24,-7.36 -0.02,-17.57 -9.06,-17.57l-146.96,0c-8.2,0 -13.58,-8.57 -10.02,-15.95l61.22,-127.06c3.56,-7.39 -1.82,-15.95 -10.02,-15.95l-126.73,0c-4.65,0 -8.81,2.89 -10.43,7.25l-81.23,218.47c-2.7,7.27 2.67,15 10.42,15z" class="st0"/>
 </g>
</svg>